#tb 0: 1/1000
0,          0,          0,        0,      510, fd7212b519783cf4831ce4bff91f2312
0,         33,         33,        0,      510, 9768722ee939d80a6716865fdebca33d
0,         66,         66,        0,      510, 328ee0f774eeafde00dcc4b9a8f4e9af
0,        100,        100,        0,      510, f882fa6015fcb042094eadab5fa952cf
0,        133,        133,        0,      510, 4331a3dabeae27d2bf3590eb96ce914a
0,        166,        166,        0,      510, 0e15106bd8e90377f6ed8b464d17159c
0,        200,        200,        0,      510, 8f062653ac2b83f7e541393e838d0e0f
0,        233,        233,        0,      510, eeb98c1728c1a74510f8bfaf10fc0002
0,        266,        266,        0,      510, 30bb058a67d6a5ee3693b21cbca5349a
0,        300,        300,        0,      510, 7ce4b79983b3abc37b141a3bea56e0b7
